<mxfile host="app.diagrams.net" modified="2021-01-04T19:09:34.948Z" agent="5.0 (X11)" etag="atUhcuzCpxIfibkscSiK" version="14.1.7" type="github">
  <diagram id="aPqZ-307RKCsaADKRxwD" name="Page-1">
    <mxGraphModel dx="1371" dy="799" grid="1" gridSize="10" guides="1" tooltips="1" connect="1" arrows="1" fold="1" page="1" pageScale="1" pageWidth="1100" pageHeight="850" math="0" shadow="0">
      <root>
        <mxCell id="0" />
        <mxCell id="1" parent="0" />
        <mxCell id="La8HqPow41N4H4vOimzL-2" value="create merge request " style="rounded=0;whiteSpace=wrap;html=1;" vertex="1" parent="1">
          <mxGeometry x="70" y="366" width="120" height="60" as="geometry" />
        </mxCell>
        <mxCell id="La8HqPow41N4H4vOimzL-3" value="" style="endArrow=none;html=1;" edge="1" parent="1">
          <mxGeometry width="50" height="50" relative="1" as="geometry">
            <mxPoint x="60" y="280" as="sourcePoint" />
            <mxPoint x="210" y="280" as="targetPoint" />
          </mxGeometry>
        </mxCell>
        <mxCell id="La8HqPow41N4H4vOimzL-4" value="merge request" style="text;html=1;strokeColor=none;fillColor=none;align=center;verticalAlign=middle;whiteSpace=wrap;rounded=0;" vertex="1" parent="1">
          <mxGeometry x="60" y="250" width="150" height="20" as="geometry" />
        </mxCell>
        <mxCell id="La8HqPow41N4H4vOimzL-5" value="" style="endArrow=none;html=1;" edge="1" parent="1">
          <mxGeometry width="50" height="50" relative="1" as="geometry">
            <mxPoint x="310" y="280" as="sourcePoint" />
            <mxPoint x="460" y="280" as="targetPoint" />
          </mxGeometry>
        </mxCell>
        <mxCell id="La8HqPow41N4H4vOimzL-6" value="test pipeline" style="text;html=1;strokeColor=none;fillColor=none;align=center;verticalAlign=middle;whiteSpace=wrap;rounded=0;" vertex="1" parent="1">
          <mxGeometry x="310" y="250" width="150" height="20" as="geometry" />
        </mxCell>
        <mxCell id="La8HqPow41N4H4vOimzL-7" value="" style="endArrow=none;html=1;" edge="1" parent="1">
          <mxGeometry width="50" height="50" relative="1" as="geometry">
            <mxPoint x="582" y="283" as="sourcePoint" />
            <mxPoint x="732" y="283" as="targetPoint" />
          </mxGeometry>
        </mxCell>
        <mxCell id="La8HqPow41N4H4vOimzL-8" value="create docker image" style="text;html=1;strokeColor=none;fillColor=none;align=center;verticalAlign=middle;whiteSpace=wrap;rounded=0;" vertex="1" parent="1">
          <mxGeometry x="582" y="253" width="150" height="20" as="geometry" />
        </mxCell>
        <mxCell id="La8HqPow41N4H4vOimzL-9" value="" style="endArrow=none;html=1;" edge="1" parent="1">
          <mxGeometry width="50" height="50" relative="1" as="geometry">
            <mxPoint x="763.5" y="283" as="sourcePoint" />
            <mxPoint x="913.5" y="283" as="targetPoint" />
          </mxGeometry>
        </mxCell>
        <mxCell id="La8HqPow41N4H4vOimzL-10" value="push image to registry" style="text;html=1;strokeColor=none;fillColor=none;align=center;verticalAlign=middle;whiteSpace=wrap;rounded=0;" vertex="1" parent="1">
          <mxGeometry x="774.5" y="253" width="150" height="20" as="geometry" />
        </mxCell>
        <mxCell id="La8HqPow41N4H4vOimzL-11" value="" style="endArrow=none;dashed=1;html=1;dashPattern=1 3;strokeWidth=2;" edge="1" parent="1">
          <mxGeometry width="50" height="50" relative="1" as="geometry">
            <mxPoint x="530" y="630" as="sourcePoint" />
            <mxPoint x="530" y="20" as="targetPoint" />
          </mxGeometry>
        </mxCell>
        <mxCell id="La8HqPow41N4H4vOimzL-12" value="" style="shape=image;verticalLabelPosition=bottom;labelBackgroundColor=#ffffff;verticalAlign=top;aspect=fixed;imageAspect=0;image=https://upload.wikimedia.org/wikipedia/commons/thumb/3/3a/OpenShift-LogoType.svg/1200px-OpenShift-LogoType.svg.png;" vertex="1" parent="1">
          <mxGeometry x="800" y="40" width="87" height="92.89" as="geometry" />
        </mxCell>
        <mxCell id="La8HqPow41N4H4vOimzL-13" value="" style="shape=image;verticalLabelPosition=bottom;labelBackgroundColor=#ffffff;verticalAlign=top;aspect=fixed;imageAspect=0;image=https://images.g2crowd.com/uploads/product/image/social_landscape/social_landscape_15680ee909406e13c21c8f179f83d99e/gitlab.png;" vertex="1" parent="1">
          <mxGeometry x="140" y="30" width="200" height="105" as="geometry" />
        </mxCell>
        <mxCell id="La8HqPow41N4H4vOimzL-14" value="gitlab-runner" style="rounded=0;whiteSpace=wrap;html=1;" vertex="1" parent="1">
          <mxGeometry x="325" y="366" width="120" height="60" as="geometry" />
        </mxCell>
        <mxCell id="La8HqPow41N4H4vOimzL-15" value="" style="shape=flexArrow;endArrow=classic;html=1;" edge="1" parent="1">
          <mxGeometry width="50" height="50" relative="1" as="geometry">
            <mxPoint x="201" y="396" as="sourcePoint" />
            <mxPoint x="311" y="396" as="targetPoint" />
            <Array as="points">
              <mxPoint x="231" y="396" />
            </Array>
          </mxGeometry>
        </mxCell>
        <mxCell id="La8HqPow41N4H4vOimzL-17" value="" style="shape=flexArrow;endArrow=classic;html=1;" edge="1" parent="1">
          <mxGeometry width="50" height="50" relative="1" as="geometry">
            <mxPoint x="460" y="396" as="sourcePoint" />
            <mxPoint x="590" y="396" as="targetPoint" />
            <Array as="points" />
          </mxGeometry>
        </mxCell>
        <mxCell id="La8HqPow41N4H4vOimzL-18" value="openshift-builder" style="rounded=0;whiteSpace=wrap;html=1;" vertex="1" parent="1">
          <mxGeometry x="600" y="366" width="120" height="60" as="geometry" />
        </mxCell>
        <mxCell id="La8HqPow41N4H4vOimzL-19" value="trigger signal" style="text;html=1;strokeColor=none;fillColor=none;align=center;verticalAlign=middle;whiteSpace=wrap;rounded=0;" vertex="1" parent="1">
          <mxGeometry x="210" y="366" width="80" height="20" as="geometry" />
        </mxCell>
        <mxCell id="La8HqPow41N4H4vOimzL-20" value="webhook" style="text;html=1;strokeColor=none;fillColor=none;align=center;verticalAlign=middle;whiteSpace=wrap;rounded=0;" vertex="1" parent="1">
          <mxGeometry x="460" y="366" width="80" height="20" as="geometry" />
        </mxCell>
        <mxCell id="La8HqPow41N4H4vOimzL-21" value="image stream" style="rounded=0;whiteSpace=wrap;html=1;" vertex="1" parent="1">
          <mxGeometry x="783.5" y="366" width="120" height="60" as="geometry" />
        </mxCell>
        <mxCell id="La8HqPow41N4H4vOimzL-22" value="" style="endArrow=none;html=1;" edge="1" parent="1">
          <mxGeometry width="50" height="50" relative="1" as="geometry">
            <mxPoint x="930" y="283" as="sourcePoint" />
            <mxPoint x="1080" y="283" as="targetPoint" />
          </mxGeometry>
        </mxCell>
        <mxCell id="La8HqPow41N4H4vOimzL-23" value="Deploy" style="text;html=1;strokeColor=none;fillColor=none;align=center;verticalAlign=middle;whiteSpace=wrap;rounded=0;" vertex="1" parent="1">
          <mxGeometry x="940" y="254" width="150" height="20" as="geometry" />
        </mxCell>
        <mxCell id="La8HqPow41N4H4vOimzL-24" value="deployment" style="rounded=0;whiteSpace=wrap;html=1;" vertex="1" parent="1">
          <mxGeometry x="950" y="366" width="120" height="60" as="geometry" />
        </mxCell>
        <mxCell id="La8HqPow41N4H4vOimzL-25" value="" style="shape=flexArrow;endArrow=classic;html=1;" edge="1" parent="1">
          <mxGeometry width="50" height="50" relative="1" as="geometry">
            <mxPoint x="734.5" y="395.5" as="sourcePoint" />
            <mxPoint x="774.5" y="395.5" as="targetPoint" />
            <Array as="points" />
          </mxGeometry>
        </mxCell>
        <mxCell id="La8HqPow41N4H4vOimzL-29" value="" style="shape=flexArrow;endArrow=classic;html=1;" edge="1" parent="1">
          <mxGeometry width="50" height="50" relative="1" as="geometry">
            <mxPoint x="910" y="395.5" as="sourcePoint" />
            <mxPoint x="950" y="395.5" as="targetPoint" />
            <Array as="points" />
          </mxGeometry>
        </mxCell>
      </root>
    </mxGraphModel>
  </diagram>
</mxfile>
